<svg width="35" height="35" viewBox="0 0 35 35" fill="none" xmlns="http://www.w3.org/2000/svg">
<path d="M10.943 9.57106C9.62691 9.49889 7.83515 8.84919 10.6914 6.76455C12.5738 5.24324 19.5996 2.9872 24.0507 6.76455C28.5018 10.5419 28.3898 14.1417 28.3898 16.4247C28.3898 19.9388 27.4405 23.6281 24.0507 27.2298C20.4224 31.0849 16.4668 31.8792 14.9934 31.8908C15.6656 31.8855 21.587 29.8933 23.3051 24.0518C24.2398 20.8739 24.7881 17.0603 20.4224 15.8528L20.3991 15.8463C19.1017 15.4873 16.0574 14.6449 13.2784 18.0588C12.6885 18.4657 11.5122 19.0006 11.5263 17.886C11.5404 16.7714 13.8436 15.2139 14.9934 14.5745L13.3513 14.7024C14.132 13.8707 15.9312 12.3293 17.2437 12.3837C15.7955 12.2573 12.7563 12.9575 10.2649 16.7471C9.78337 17.386 8.75433 18.4834 8.49008 17.7617C8.22583 17.0399 8.42845 16.6324 8.56279 16.5188C8.96333 16.0752 9.81696 15.2354 10.0272 15.4253C10.29 15.6625 9.43907 14.4916 10.4429 13.4855C11.246 12.6806 10.1334 13.4409 9.47668 13.9216C8.66896 14.5344 7.06706 15.4702 7.12125 14.3113C7.17543 13.1523 8.06179 12.1073 8.4982 11.7296C9.20128 11.0153 10.582 9.67992 10.943 9.57106Z" fill="url(#paint0_linear)"/>
<defs>
<linearGradient id="paint0_linear" x1="7.29231" y1="10.277" x2="25.8423" y2="27.026" gradientUnits="userSpaceOnUse">
<stop stop-color="white"/>
<stop offset="0.0989583" stop-color="#E1F9FF"/>
<stop offset="0.197917" stop-color="#C0F3FF"/>
<stop offset="0.296875" stop-color="#9BEDFF"/>
<stop offset="0.395833" stop-color="#6DE7FF"/>
<stop offset="0.494792" stop-color="#00E0FF"/>
<stop offset="0.494792" stop-color="#00E0FF"/>
<stop offset="0.595833" stop-color="#18C2E5"/>
<stop offset="0.696875" stop-color="#20A4CC"/>
<stop offset="0.797917" stop-color="#2288B4"/>
<stop offset="0.898958" stop-color="#216C9B"/>
<stop offset="1" stop-color="#1D5284"/>
</linearGradient>
</defs>
</svg>
